<svg width="391" height="397" viewBox="0 0 391 397" fill="none" xmlns="http://www.w3.org/2000/svg">
<g id="geo_fence 1" clip-path="url(#clip0_12_2)">
<g id="Group">
<g id="Layer 1">
<path id="fence" d="M194.599 396.732C193.439 396.732 192.281 396.726 191.118 396.714C139.189 396.189 90.755 383.962 54.738 362.285C18.946 340.743 -0.489991 312.275 0.0090088 282.125C0.260009 266.963 5.51901 252.24 15.64 238.365C26.033 224.118 41.11 211.425 60.453 200.639C97.978 179.715 147.237 168.47 199.159 169.005C251.081 169.54 299.522 181.758 335.539 203.435C371.331 224.976 390.767 253.444 390.268 283.595C390.017 298.756 384.758 313.48 374.637 327.355C364.244 341.602 349.167 354.295 329.824 365.08C293.139 385.537 245.235 396.731 194.599 396.732ZM195.742 173.008C147.76 173.008 99.678 183.343 62.399 204.13C25.234 224.853 4.49901 252.576 4.00501 282.191C3.53001 310.857 22.279 338.085 56.799 358.861C94.221 381.383 144.322 392.709 194.534 392.712C242.517 392.712 290.598 382.377 327.878 361.59C365.043 340.867 385.778 313.144 386.272 283.529C386.746 254.863 367.997 227.635 333.478 206.859C296.056 184.336 245.954 173.008 195.742 173.008V173.008Z" fill="#FF8500"/>
<g id="Group_2" opacity="0.62">
<path id="Vector" opacity="0.62" d="M195.413 380.79C288.786 380.526 364.356 336.468 364.204 282.384C364.051 228.299 288.233 184.669 194.859 184.933C101.486 185.197 25.916 229.255 26.0689 283.34C26.2218 337.424 102.04 381.054 195.413 380.79Z" fill="#F7941D"/>
</g>
<path id="Vector_2" d="M115.799 289.247C115.74 290.18 115.711 291.112 115.714 292.042C115.738 291.155 115.766 290.216 115.799 289.247Z" fill="#00AD00"/>
<g id="Vector_3" style="mix-blend-mode:multiply">
<path d="M73.309 262.749L228.909 353.483C228.909 353.483 243.161 360.683 257.286 361.609C271.411 362.535 283.686 356.253 292.259 352.337C300.832 348.421 320.575 337.061 324.675 333.23C328.775 329.399 340.008 321.316 328.893 310.423C317.778 299.53 135.893 205.129 121.153 204.531C106.413 203.933 61.489 241.631 60.353 248.182C59.275 254.426 65.007 257.956 73.309 262.749Z" fill="#F9B162"/>
</g>
<path id="Vector_4" d="M203.917 286.613C204.495 286.537 205.052 286.347 205.555 286.052C206.033 285.66 205.675 284.217 204.86 283.7C204.045 283.183 201.76 284.33 201.378 284.136C200.996 283.942 198.678 284.922 198.678 284.922L199.431 286.582L203.917 286.613Z" fill="#FF553D"/>
<path id="Vector_5" d="M199.311 280.591C201.466 280.052 203.662 280.756 203.952 283.201C204.304 286.168 202.999 286.64 202.212 287.013C199.87 288.088 197.33 288.667 194.753 288.713C191.024 288.755 190.569 286.762 190.568 285.435C190.568 285.246 190.568 285.258 190.582 285.083C190.688 283.19 191.37 282.628 192.64 282.249C195.375 281.431 199.311 280.591 199.311 280.591Z" fill="#FF553D"/>
<path id="Vector_6" d="M273.145 239.832C273.129 240.32 273.183 240.807 273.306 241.279C273.306 241.301 273.317 241.311 273.317 241.333C273.357 241.464 273.425 241.585 273.517 241.687C273.597 241.765 273.683 241.837 273.775 241.901C274.359 242.343 275.038 242.644 275.758 242.78C276.076 242.837 276.4 242.852 276.722 242.823H276.733C276.794 242.826 276.856 242.819 276.915 242.802H276.926C277.3 242.755 277.663 242.643 277.998 242.469C278.073 242.426 278.159 242.383 278.244 242.33H278.255C278.341 242.287 278.427 242.23 278.512 242.18C278.515 242.18 278.518 242.179 278.52 242.177C278.522 242.175 278.523 242.172 278.523 242.169C280.307 241.047 281.782 239.495 282.811 237.656C282.927 237.419 283.02 237.172 283.089 236.917C283.178 236.612 283.239 236.3 283.271 235.984C283.283 235.91 283.291 235.834 283.293 235.759C283.322 235.51 283.336 235.26 283.335 235.009C283.339 234.826 283.332 234.644 283.314 234.462C283.314 234.354 283.304 234.247 283.282 234.141C283.252 233.796 283.188 233.454 283.089 233.122C283.087 233.111 283.083 233.1 283.078 233.09C282.949 232.465 282.636 231.894 282.178 231.45C282.007 231.304 281.806 231.198 281.589 231.139C281.373 231.079 281.145 231.069 280.924 231.107C279.863 231.236 278.319 232.168 275.715 233.937C274.587 234.706 273.737 235.819 273.292 237.11L273.26 237.21C273.219 237.39 273.194 237.573 273.185 237.757C273.185 238.004 273.164 238.293 273.153 238.582V238.593C273.145 239 273.135 239.425 273.145 239.832Z" fill="#FF553D"/>
<path id="Vector_7" d="M275.268 238.835V239.189L275.278 239.2C275.268 239.224 275.268 239.251 275.278 239.275C275.272 239.986 275.403 240.692 275.664 241.354V241.365L275.675 241.376C275.832 241.828 276.159 242.2 276.586 242.415C276.853 242.516 277.138 242.56 277.422 242.542C277.707 242.525 277.985 242.448 278.237 242.315V242.304C278.333 242.268 278.425 242.225 278.515 242.176C278.518 242.176 278.521 242.175 278.523 242.173C278.525 242.171 278.526 242.168 278.526 242.165C280.408 241.167 281.914 239.583 282.814 237.652C282.93 237.415 283.023 237.168 283.092 236.913C283.184 236.631 283.245 236.34 283.274 236.045V235.98C283.286 235.906 283.294 235.83 283.296 235.755C283.325 235.506 283.339 235.256 283.338 235.005C283.342 234.822 283.335 234.64 283.317 234.458C283.321 234.361 283.314 234.264 283.296 234.169V234.158C283.274 233.804 283.207 233.455 283.096 233.118C283.094 233.107 283.09 233.096 283.085 233.086C282.925 232.636 282.7 232.379 282.464 232.336C282.292 232.317 282.119 232.324 281.949 232.357C280.674 232.644 279.484 233.225 278.475 234.055C277.186 235.148 275.311 236.4 275.268 238.835Z" fill="#FF3717"/>
<path id="Vector_8" d="M212.221 330.353L224.441 322.697L253.424 340.944L259.569 277.58L87.477 215.967L85.371 249.801L90.601 257.535L103.751 248.469L159.975 286.732L212.221 330.353Z" fill="#292929"/>
<path id="Vector_9" d="M252.98 343.24L250.205 346.797L236.77 329.525L239.545 325.968L252.98 343.24Z" fill="#FFCC00"/>
<path id="Vector_10" d="M251.647 344.009L248.872 347.566L235.437 330.294L238.212 326.737L251.647 344.009Z" fill="#FFCC00"/>
<path id="Vector_11" d="M231.103 307.454L217.717 315.181L237.735 349.699L251.157 341.947L246.845 318.207L231.103 307.454Z" fill="#333333"/>
<path id="Vector_12" d="M241.727 340.7C241.727 349.67 235.39 353.283 227.573 348.77C219.756 344.257 213.418 333.326 213.418 324.356C213.418 315.386 219.755 311.773 227.573 316.286C235.391 320.799 241.727 331.729 241.727 340.7Z" fill="#A89560"/>
<path id="Vector_13" d="M133.652 262.914C133.652 271.884 127.315 275.497 119.498 270.984C111.681 266.471 105.344 255.54 105.344 246.57C105.344 237.6 111.681 233.987 119.498 238.5C127.315 243.013 133.652 253.944 133.652 262.914Z" fill="#333333"/>
<path id="Vector_14" d="M109.702 237.363L96.315 245.089L116.334 279.608L129.756 271.856L125.444 248.116L109.702 237.363Z" fill="#333333"/>
<path id="Vector_15" d="M328.788 313.816L328.141 314.675H328.829H329.429L328.919 316.46L326.312 316.777L326.165 316.696L315.63 310.932L315.081 310.66L313.495 309.744V302.044C313.495 291.551 306.082 278.765 296.937 273.483C287.792 268.201 280.374 272.431 280.374 282.924V290.624L192.452 239.862L192.093 239.627V231.95C192.093 221.457 184.681 208.669 175.536 203.389C166.391 198.109 158.976 202.337 158.976 212.83V217.95L158.756 217.806C158.756 217.806 158.033 217.343 156.84 216.573C151.691 213.244 137.809 204.159 135.786 201.725C133.286 198.725 131.43 191.643 131.43 191.643L131.493 191.164L132.485 183.539L134.903 182.204L136.037 173.75L134.903 171.536L137.836 168.847L138.048 164.382L140.048 163.846L154.066 168.146C154.066 168.146 166.933 171.685 181.815 175.595C196.697 179.505 209.098 186.931 215.482 190.444C225.086 195.491 234.161 201.487 242.569 208.344C252.644 216.719 261.988 225.937 270.499 235.897C275.975 242.438 282.021 249.614 282.021 249.614C282.021 249.614 292.069 257.323 302.348 264.426C312.627 271.529 317.871 278.955 322.748 283.591C325.771 286.491 328.498 289.684 330.89 293.123L330.919 293.571L331.626 308.571L331.06 310.806L328.788 313.816Z" fill="#F00000"/>
<path id="Vector_16" d="M330.918 293.565L328.944 291.715L309.337 275.715C309.337 275.715 289.163 258.24 274.958 249.3C260.753 240.36 195.435 201 181.306 192.717C167.177 184.434 153.915 177.683 153.915 177.683L137.834 168.846L138.047 164.381L140.047 163.846L154.065 168.146C154.065 168.146 166.919 171.578 181.777 175.584C186.486 176.854 190.586 177.784 194.711 179.521C203.603 183.268 211.121 188.043 215.483 190.443C225.089 195.489 234.165 201.484 242.575 208.339C252.649 216.714 261.993 225.931 270.504 235.891C275.981 242.434 282.026 249.61 282.026 249.61C282.026 249.61 292.074 257.318 302.352 264.422C312.63 271.526 317.876 278.951 322.752 283.585C325.774 286.486 328.502 289.68 330.894 293.119L330.918 293.565Z" fill="#FF553D"/>
<path id="Vector_17" d="M273.739 283.9L201.586 240.666L186.564 205.7L182.964 194.02L183.664 189.787L184.622 189.945L183.962 193.953L187.475 205.364L202.355 239.993L273.005 282.327L273.718 277.827V274.072C274.394 268.97 274.721 263.828 274.696 258.681C274.496 252.862 274.472 249.949 274.469 249.395L272.164 243.884L273.064 243.509L275.444 249.199V249.299C275.444 249.327 275.444 252.19 275.67 258.65C275.698 263.84 275.37 269.026 274.688 274.171L274.682 277.944L273.739 283.9Z" fill="#DA0600"/>
<path id="Vector_18" d="M174.212 175.922C174.212 175.922 172.912 179.481 172.881 179.627C172.85 179.773 177.781 185.871 177.781 185.871L276.807 248.116L277.865 247.6C277.865 247.6 263.159 230.11 252.732 219.408C242.305 208.706 228.819 199.836 222.094 196.04C215.369 192.244 197.651 182.656 191.531 180.813C185.411 178.97 174.212 175.922 174.212 175.922Z" fill="#AE9C55"/>
<path id="Vector_19" d="M191.534 180.813L184.291 189.962L190.033 193.571L196.945 182.845L191.534 180.813Z" fill="#292929"/>
<path id="Vector_20" d="M309.336 275.712L306.881 276.375L313.454 284.158L320.67 289.798L322.445 289.739L327.319 293.637L328.943 291.714L318.743 282.4L309.336 275.712Z" fill="#F78459"/>
<path id="Vector_21" d="M330.963 294.265L329.189 297.209L328.943 303.637L331.625 308.563L330.963 294.265Z" fill="#F00000"/>
<path id="Vector_22" d="M134.903 171.536L136.188 172.971L150.743 179.753L153.614 179.373L153.916 177.684L143.913 168.465L139.709 167.183L137.947 167.076L134.903 171.536Z" fill="#F78459"/>
<path id="Vector_23" d="M158.752 217.805C158.752 217.805 158.029 217.344 156.837 216.572C151.689 213.244 137.806 204.159 135.782 201.724C133.288 198.724 131.428 191.643 131.428 191.643L131.49 191.163L138.803 196.663L142.503 205.389L158.752 217.805Z" fill="#292929"/>
<path id="Vector_24" d="M132.486 183.539L134.223 185.409L156.126 199.555L152.877 195.251L141.714 187.375L135.432 183.68L134.903 183.006V182.204L132.486 183.539Z" fill="#FF553D"/>
<path id="Vector_25" d="M194.868 226.778C194.868 226.778 274.259 278.597 275.846 279.378C277.433 280.159 276.3 277.038 272.446 274.098C268.592 271.158 217.535 239.598 207.505 233.288C197.475 226.978 194.868 226.778 194.868 226.778Z" fill="#FF553D"/>
<path id="Vector_26" d="M328.565 301.336L319.991 292.619L313.548 287.919L323.635 295.238L328.565 301.336Z" fill="#F00000"/>
<path id="Vector_27" d="M307.004 309.713C312.497 306.502 312.441 296.186 306.879 286.671C301.317 277.157 292.355 272.047 286.862 275.258C281.369 278.47 281.425 288.786 286.987 298.3C292.549 307.814 301.51 312.924 307.004 309.713Z" fill="#292929"/>
<path id="Vector_28" d="M189.686 230.563C189.686 239.533 183.349 243.146 175.532 238.633C167.715 234.12 161.375 223.189 161.375 214.219C161.375 205.249 167.712 201.635 175.53 206.149C183.348 210.663 189.686 221.593 189.686 230.563Z" fill="#292929"/>
<path id="Vector_29" d="M315.627 303.274V310.934L315.078 310.661L313.492 309.745V302.045C313.492 291.552 306.08 278.765 296.933 273.484C287.786 268.203 280.373 272.431 280.373 282.924V290.624L278.24 289.392V281.692C278.24 269.847 286.608 265.073 296.933 271.034C307.258 276.995 315.627 291.428 315.627 303.274Z" fill="#FF553D"/>
<path id="Vector_30" d="M194.226 233.183V240.883L192.449 239.857L192.091 239.622V231.95C192.091 221.458 184.677 208.669 175.533 203.39C166.389 198.111 158.972 202.336 158.972 212.829V217.95L158.752 217.805C158.752 217.805 158.029 217.344 156.837 216.572V211.6C156.837 199.755 165.208 194.983 175.537 200.944C185.866 206.905 194.226 221.338 194.226 233.183Z" fill="#FF553D"/>
<path id="Vector_31" d="M129.213 216.264L137.64 210.011L151.072 200.958L167.92 191.231L180.806 185.089L193.61 180.038L160.284 171.82L155.233 171.719L144.402 175.769L132.505 180.733L111.89 192.636L101.022 200.814L97.02 204.484V206.384L129.213 216.264Z" fill="#292929"/>
<path id="Vector_32" d="M190.695 180.235L190.224 180.422L180.451 184.273L177.59 185.637L167.506 190.444L150.599 200.203L137.143 209.274L129.045 215.285L118.668 212.1L97.909 205.725V204.876L101.592 201.5L112.382 193.38L132.901 181.532L144.744 176.588L155.383 172.612L157.8 172.661L160.168 172.706L174.134 176.148L182.552 178.227L190.695 180.235Z" fill="#37464E"/>
<path id="Vector_33" d="M329.639 305.278L328.725 312.5L328.788 313.816L328.806 314.204L328.83 314.677L328.916 316.462L324.142 323.152L315.256 331.109L294.38 343.162L277.364 350.161L264.052 352.731L259.569 349.603L260.401 347.567L267.764 329.562L313.492 303.164L330.89 293.118L329.639 305.278Z" fill="#F00000"/>
<path id="Vector_34" d="M282.023 249.61C282.023 249.61 309.475 269.757 316.875 275.712C324.275 281.667 327.867 285.712 329.216 288.883C330.104 291.2 330.675 293.625 330.916 296.094L302.808 286.213L282.023 249.61Z" fill="#FF553D"/>
<path id="Vector_35" d="M330.888 293.118L323.301 301.651L317.73 306.342L295.897 318.95L283.654 324.542L267.764 329.562L226.575 299.732L212.675 289.657H212.666L282.027 249.614C282.027 249.614 298.362 261.337 310.143 270.614C316.045 275.425 321.409 280.86 326.143 286.824C329.129 290.524 330.888 293.118 330.888 293.118Z" fill="#FF553D"/>
<path id="Vector_36" d="M330.888 293.118L323.301 301.651L317.73 306.342L295.897 318.95L283.654 324.542L267.764 329.562L267.795 330.011L265.818 328.158L244.135 313.358C244.135 313.358 219.805 298.285 205.598 289.347C205.527 289.303 205.452 289.254 205.376 289.21L204.257 285.416L207.451 288.161C207.451 288.161 217.197 294.061 226.579 299.733C233.865 304.133 240.923 308.391 243.056 309.644C245.333 310.932 247.69 312.072 250.114 313.056C254.525 314.938 259.082 316.459 263.739 317.605C269.749 318.937 281.775 318.822 285.884 318.24C289.993 317.658 313.035 305.494 315.375 303.61C317.715 301.726 324.646 293.393 325.593 289.804C325.85 288.825 326.036 287.829 326.148 286.823C329.129 290.524 330.888 293.118 330.888 293.118Z" fill="#FF382E"/>
<path id="Vector_37" d="M288.295 320.779C287.634 317.779 224.007 287.079 224.043 286.93L224.831 286.717C224.831 286.717 276.868 311.04 284.296 316.762C287.293 318.654 288.575 319.544 288.295 320.779Z" fill="#FF3717"/>
<path id="Vector_38" d="M317.239 305.021L316.263 302.578L276.07 258.343L276.846 257.939L316.516 301.605L317.239 305.021Z" fill="#FF382E"/>
<path id="Vector_39" d="M324.619 296.455C324.619 296.455 318.962 304.043 317.075 305.538C313.548 308.332 300.488 315.921 295.229 318.238C289.97 320.555 284.521 322.925 275.029 322.583C276.504 324.82 283.829 326.39 283.829 326.39L304.943 315.484L320.516 306.105L324.619 296.455Z" fill="#F00000"/>
<path id="Vector_40" d="M282.023 249.61L273.941 259.111L268.63 264.152L239.391 281.033L228.442 285.38L212.663 289.655L176.094 246.72L242.572 208.339L282.023 249.61Z" fill="#37464E"/>
<path id="Vector_41" d="M280.202 247.705L277.202 244.565L276.365 246.356C277.065 247.556 274.41 253.333 268.931 257.356C263.452 261.379 238.431 275.899 232.504 278.456C226.577 281.013 219.804 283.815 213.604 283.596C212.117 283.544 210.913 285.04 210.35 286.936L212.666 289.655L228.445 285.38L239.394 281.033L268.633 264.152L273.944 259.111L282.026 249.611L280.202 247.705Z" fill="#292929"/>
<path id="Vector_42" d="M190.224 180.422L180.451 184.273L177.59 185.637C176.69 184.526 172.881 179.782 172.881 179.627C172.903 179.502 173.845 176.927 174.134 176.148C174.183 176.006 174.214 175.922 174.214 175.922C174.214 175.922 178.105 176.979 182.552 178.227C185.142 178.951 187.918 179.742 190.224 180.422Z" fill="#566770"/>
<path id="Vector_43" d="M276.54 248.8L276.808 248.12L230.826 219.22C234.286 216.655 237.616 213.918 240.802 211.02C244.523 214.004 248.066 217.206 251.41 220.607C261.836 231.309 276.54 248.8 276.54 248.8Z" fill="#566770"/>
<path id="Vector_44" d="M274.451 244.052L274.201 244.019L263.259 241.242L239.165 256.478L235.324 266.356L210.882 279.566L210.892 279.578L211.253 280.033L211.261 280.043C211.742 280.643 212.188 281.188 212.602 281.669L212.616 281.685C212.692 281.774 212.767 281.859 212.842 281.944L212.942 282.054C213.006 282.126 213.069 282.195 213.132 282.264C213.172 282.309 213.213 282.354 213.253 282.397C213.311 282.46 213.367 282.52 213.424 282.579C213.481 282.638 213.507 282.668 213.549 282.711C213.591 282.754 213.654 282.819 213.707 282.872L213.834 282.998L213.978 283.138L214.108 283.258C214.153 283.299 214.197 283.339 214.241 283.377C214.285 283.415 214.327 283.452 214.37 283.488C214.413 283.524 214.452 283.557 214.492 283.588C214.532 283.619 214.579 283.656 214.622 283.688C214.665 283.72 214.696 283.745 214.733 283.771C214.77 283.797 214.821 283.831 214.865 283.86L214.965 283.924C215.014 283.953 215.065 283.978 215.108 284.004L215.185 284.046C215.256 284.081 216.061 284.333 216.128 284.357C218.913 283.881 221.664 283.224 224.364 282.391C227.346 281.485 230.27 280.399 233.12 279.138C239.811 276.101 246.322 272.682 252.62 268.896C265.994 260.928 269.533 257.685 269.533 257.685L275.598 251.228C276.186 250.071 276.509 248.798 276.543 247.501C276.046 246.651 275.334 245.478 274.451 244.052Z" fill="#63747D"/>
<g id="Vector_45" style="mix-blend-mode:screen">
<path d="M210.347 231.511L192.547 237.219L176.913 246.244C181.236 251.78 185.834 257.094 190.691 262.168C202.291 274.457 208.521 285.529 214.74 288.416C214.995 288.535 215.325 288.673 215.72 288.826L228.438 285.38L239.387 281.033L249.177 275.38C227.091 245.13 210.347 231.511 210.347 231.511Z" fill="#1C2121"/>
</g>
<path id="Vector_46" d="M193.61 180.038L180.806 185.089L167.92 191.231L151.072 200.958L137.64 210.011L127.132 218.42L176.094 246.72L189.869 241.279L205.379 233.369L226.156 221.373L233.217 216.252L242.572 208.339L221.759 194.605L193.61 180.038Z" fill="#FF553D"/>
<path id="Vector_47" d="M138.048 164.381L126.258 168.345L114.726 173.257L88.106 188.627L78.419 195.965L71.901 202.571L92.069 209.024L101.022 200.814L111.89 192.636L132.505 180.733L144.402 175.769L159.351 170.179L138.048 164.381Z" fill="#FF553D"/>
<path id="Vector_48" d="M267.795 330.01L266.423 346.21L266.023 347.775L265.853 348.445L263.274 350.945H264.56L264.049 352.73L261.442 353.047L247.475 350.664L246.926 350.391L245.811 349.747L245.34 349.475L244.13 342.086C244.13 331.593 236.718 318.805 227.573 313.526C218.428 308.247 211.01 312.474 211.01 322.964L212.219 330.353L124.297 279.591L123.938 279.356L122.73 272C122.73 261.507 115.317 248.718 106.172 243.439C97.027 238.16 89.612 242.387 89.612 252.877L90.821 257.683L90.602 257.539C90.602 257.539 89.877 257.076 88.686 256.306C83.537 252.977 73.503 247.528 71.477 245.094C68.985 242.094 66.326 232.494 66.326 232.494L66.389 232.013L67.381 224.386L69.799 223.051L70.933 214.6L69.799 212.383L70.883 207.502L71.898 202.573L73.898 202.037L86.779 206.994C86.779 206.994 100.306 209.853 115.188 213.763C130.07 217.673 142.616 225.313 149 228.826C158.604 233.873 167.678 239.87 176.087 246.726C187.608 256.154 195.657 269.397 201.135 275.941C206.613 282.485 212.657 289.661 212.657 289.661C212.657 289.661 222.705 297.369 232.983 304.473C243.261 311.577 254.744 315.401 259.615 320.036C262.637 322.937 265.365 326.13 267.758 329.568L267.795 330.01Z" fill="#F00000"/>
<path id="Vector_49" d="M124.837 272.017C123.062 250.29 122.408 245.517 112.396 238.417C102.384 231.317 94.996 234.193 91.719 237.007C88.442 239.821 87.475 246.057 87.475 251.641C90.67 243.616 89.866 241.718 95.863 239.951C101.86 238.184 107.945 243.551 107.945 243.551L114.619 249.39L120.324 258.202L124.837 272.017Z" fill="#FF553D"/>
<path id="Vector_50" d="M127.348 267.205C127.348 267.205 204.899 318.642 206.486 319.428C208.073 320.214 206.724 312.71 202.87 309.77C199.016 306.83 152.614 279.263 142.583 272.952C132.552 266.641 127.348 267.205 127.348 267.205Z" fill="#FF553D"/>
<path id="Vector_51" d="M267.795 330.011L265.818 328.158L244.135 313.358C244.135 313.358 219.805 298.285 205.598 289.347C205.527 289.303 205.452 289.254 205.376 289.21C190.73 280.01 126.002 241.01 111.946 232.762C97.816 224.477 84.555 217.729 84.555 217.729L70.886 207.5L71.899 202.569L73.899 202.036L86.781 206.989C86.781 206.989 100.308 209.85 115.19 213.759C130.072 217.668 142.616 225.313 149.004 228.823C158.607 233.868 167.681 239.862 176.089 246.716C187.612 256.147 197.736 268.19 203.213 274.734C206.899 279.345 210.066 284.347 212.658 289.651H212.667C213.035 289.851 224.945 296.266 235.067 303.262C240.509 307.025 245.707 310.201 250.113 313.049C253.48 315.091 256.661 317.425 259.62 320.023C262.643 322.924 265.37 326.117 267.763 329.556L267.795 330.011Z" fill="#FF553D"/>
<path id="Vector_52" d="M156.922 252.5L155.245 257.61C155.245 257.61 152.782 266.461 152.782 270.948C152.794 273.725 153.114 276.492 153.736 279.198L152.702 283.579L153.26 292.479L156.922 252.5Z" fill="#F00000"/>
<path id="Vector_53" d="M157.407 262.127C157.093 262.499 156.868 262.936 156.747 263.407C156.625 263.878 156.612 264.37 156.707 264.847C157.007 265.628 162.425 268.932 162.968 269.065C163.511 269.198 163.914 267.699 163.836 267.237C163.758 266.775 157.407 262.127 157.407 262.127Z" fill="#6D0103"/>
<path id="Vector_54" d="M161.875 264.437L158.175 262.085C157.696 261.785 157.289 261.99 157.264 262.554L157.256 262.754C157.26 263.062 157.337 263.365 157.48 263.638C157.623 263.911 157.828 264.146 158.079 264.325L163.165 267.56C163.737 267.924 164.065 267.306 163.694 266.567C163.284 265.71 162.657 264.976 161.875 264.437V264.437Z" fill="#B1282F"/>
<path id="Vector_55" d="M158.739 263.592C158.726 263.892 158.507 264.008 158.249 263.844C158.114 263.748 158.003 263.621 157.926 263.474C157.849 263.327 157.808 263.164 157.806 262.998C157.819 262.698 158.038 262.582 158.296 262.746C158.431 262.842 158.542 262.969 158.619 263.116C158.696 263.263 158.737 263.426 158.739 263.592Z" fill="#383838"/>
<path id="Vector_56" d="M118.314 237.641C118.001 238.013 117.775 238.451 117.654 238.922C117.532 239.393 117.519 239.885 117.614 240.362C117.914 241.142 123.332 244.446 123.875 244.579C124.418 244.712 124.821 243.214 124.743 242.752C124.665 242.29 118.314 237.641 118.314 237.641Z" fill="#6D0103"/>
<path id="Vector_57" d="M122.781 239.952L119.081 237.6C118.602 237.295 118.194 237.505 118.17 238.069L118.162 238.269C118.166 238.577 118.243 238.88 118.386 239.153C118.529 239.426 118.734 239.661 118.985 239.84L124.071 243.075C124.643 243.438 124.971 242.82 124.6 242.081C124.19 241.225 123.563 240.491 122.781 239.952V239.952Z" fill="#B1282F"/>
<path id="Vector_58" d="M119.646 239.107C119.633 239.407 119.414 239.523 119.156 239.359C119.021 239.263 118.91 239.136 118.833 238.989C118.756 238.842 118.715 238.679 118.713 238.513C118.726 238.213 118.945 238.097 119.203 238.261C119.338 238.357 119.449 238.484 119.526 238.631C119.603 238.778 119.644 238.941 119.646 239.107Z" fill="#383838"/>
<path id="Vector_59" d="M259.621 320.029C256.662 317.431 253.481 315.097 250.114 313.055C247.69 312.071 245.333 310.931 243.056 309.643C240.923 308.39 233.865 304.13 226.579 299.732C217.197 294.064 207.451 288.16 207.451 288.16L204.257 285.415L205.376 289.209C205.452 289.253 205.527 289.302 205.598 289.346C219.805 298.284 244.135 313.357 244.135 313.357L265.818 328.157L267.795 330.01L267.764 329.561C265.371 326.122 262.644 322.929 259.621 320.029V320.029Z" fill="#FF382E"/>
<path id="Vector_60" d="M204.375 323.944L132.226 280.71L117.203 245.745L113.603 234.064L114.303 229.831L115.261 229.989L114.595 234L118.114 245.413L132.994 280.041L203.644 322.375L204.357 317.875V314.12C205.033 309.018 205.36 303.876 205.335 298.73C205.135 292.91 205.111 289.997 205.109 289.444L202.809 283.931L203.709 283.557L206.089 289.248V289.348C206.089 289.376 206.089 292.239 206.315 298.699C206.344 303.889 206.015 309.075 205.333 314.22L205.327 317.993L204.375 323.944Z" fill="#DA0600"/>
<path id="Vector_61" d="M104.852 215.967C104.852 215.967 103.552 219.526 103.52 219.667C103.488 219.808 108.42 225.911 108.42 225.911L207.447 288.156L208.505 287.64C208.505 287.64 196.681 268.486 186.254 257.784C175.827 247.082 162.34 238.212 155.616 234.416C148.892 230.62 131.175 221.037 125.055 219.194C118.935 217.351 104.852 215.967 104.852 215.967Z" fill="#292929"/>
<path id="Vector_62" d="M109.303 224.924C107.566 222.773 105.713 220.447 104.973 219.471C105.159 218.948 105.451 218.145 105.731 217.371C109.048 217.726 119.686 218.941 124.678 220.445C130.841 222.3 149.078 232.227 154.978 235.558C166.05 241.928 176.249 249.707 185.319 258.7C193.119 266.7 201.81 279.653 205.535 285.411L109.303 224.924Z" fill="#37464E"/>
<path id="Vector_63" d="M125.055 219.194L114.93 230.007L120.673 233.617L130.467 221.226L125.055 219.194Z" fill="#292929"/>
<path id="Vector_64" d="M159.803 238.071L155.255 254.294L159.073 256.713L162.979 239.663L159.803 238.071Z" fill="#292929"/>
<path id="Vector_65" d="M244.133 313.356L241.678 314.02L248.251 321.803L255.467 327.443L257.242 327.384L264.194 330.082L265.819 328.158L253.54 320.045L244.133 313.356Z" fill="#F00000"/>
<path id="Vector_66" d="M267.839 330.71L266.064 333.654L263.74 341.282L266.423 346.208L267.839 330.71Z" fill="#F00000"/>
<path id="Vector_67" d="M82.645 217.373L82.517 218.092L82.343 219.065L79.474 219.443L70.998 214.099L69.803 212.384L70.998 205.729L71.957 206.298L72.672 206.907L74.552 208.51L82.645 217.373Z" fill="#C3C2CE"/>
<path id="Vector_68" d="M90.601 257.535C90.601 257.535 89.878 257.073 88.685 256.301C83.538 252.973 73.502 247.524 71.478 245.089C68.985 242.089 66.327 232.489 66.327 232.489L66.389 232.009L69.443 236.709L74.353 245.119L90.601 257.535Z" fill="#292929"/>
<path id="Vector_69" d="M67.384 224.386C66.038 219.237 70.734 216.103 70.734 216.103C70.734 216.103 69.802 222.249 69.802 223.051C73.5433 228.084 78.1509 232.411 83.409 235.829C84.3176 237.259 85.4512 238.532 86.766 239.6C86.766 239.6 71.893 229.661 68.555 226.987C65.217 224.313 67.384 224.386 67.384 224.386Z" fill="#FF553D"/>
<path id="Vector_70" d="M237.645 349.751C243.138 346.54 243.082 336.224 237.52 326.71C231.958 317.196 222.996 312.086 217.502 315.297C212.009 318.509 212.065 328.825 217.628 338.339C223.19 347.853 232.152 352.963 237.645 349.751Z" fill="#292929"/>
<path id="Vector_71" d="M116.243 279.663C121.736 276.452 121.68 266.135 116.118 256.621C110.556 247.107 101.594 241.997 96.1008 245.209C90.6078 248.42 90.6638 258.736 96.2259 268.25C101.788 277.765 110.75 282.874 116.243 279.663Z" fill="#292929"/>
<path id="Vector_72" d="M124.866 273.228L126.075 280.617L124.298 279.59L123.94 279.355L122.731 272C122.731 261.508 115.316 248.719 106.172 243.44C97.028 238.161 89.612 242.387 89.612 252.879L90.821 257.685L90.601 257.54C90.601 257.54 89.878 257.078 88.685 256.306L87.475 251.641C87.475 239.796 95.846 235.024 106.17 240.985C116.494 246.946 124.866 261.383 124.866 273.228Z" fill="#CC0000"/>
<path id="Vector_73" d="M240.19 208.51C240.19 208.51 255.252 221.626 263.724 231.249C269.743 238.085 273.748 242.984 276.363 246.356C279.892 250.908 274.772 258.927 274.772 258.927L282.133 249.788L265.571 230.288L242.571 208.34L240.19 208.51Z" fill="#FF553D"/>
<path id="Vector_74" d="M97.02 204.484V206.384L129.213 216.264L137.64 210.011L127.447 218.293L91.719 208.674L97.02 204.484Z" fill="#FF553D"/>
<path id="Vector_75" d="M192.576 180.446L192.734 180.038L160.284 171.82L154.831 171.711L159.444 169.915L193.96 179.973L192.576 180.446Z" fill="#FF553D"/>
<path id="Vector_76" d="M241.727 340.7C241.727 349.67 235.39 353.283 227.573 348.77C219.756 344.257 213.418 333.326 213.418 324.356C213.418 315.386 219.755 311.773 227.573 316.286C235.391 320.799 241.727 331.729 241.727 340.7Z" fill="#393843"/>
<path id="Vector_77" d="M240.844 340.536C240.844 349.165 234.744 352.641 227.228 348.299C219.712 343.957 213.612 333.443 213.612 324.814C213.612 316.185 219.712 312.709 227.228 317.05C234.744 321.391 240.844 331.907 240.844 340.536Z" fill="#2D2C37"/>
<path id="Vector_78" d="M238.922 339.468C238.922 346.816 233.73 349.776 227.322 346.079C220.914 342.382 215.722 333.427 215.722 326.079C215.722 318.731 220.914 315.771 227.322 319.468C233.73 323.165 238.922 332.12 238.922 339.468Z" fill="#504F58"/>
<path id="Vector_79" d="M238.56 338.7C238.56 345.665 233.639 348.47 227.57 344.966C221.501 341.462 216.581 332.975 216.581 326.011C216.581 319.047 221.501 316.241 227.57 319.745C233.639 323.249 238.56 331.738 238.56 338.7Z" fill="#BABABE"/>
<path id="Vector_80" d="M217.369 328.116C218.019 332.64 219.974 336.877 222.994 340.308C226.155 343.93 229.73 345.755 232.599 345.576C233.836 345.52 235.007 345.004 235.883 344.128C236.187 343.84 236.45 343.51 236.663 343.149C236.71 343.074 236.757 343.008 236.795 342.933C236.957 342.66 237.096 342.374 237.209 342.077C237.375 341.671 237.509 341.253 237.609 340.826C237.791 340.001 237.879 339.159 237.873 338.314C237.873 337.909 237.854 337.495 237.816 337.081C237.807 336.865 237.779 336.658 237.75 336.451C237.732 336.31 237.713 336.169 237.694 336.028C237.675 335.887 237.656 335.764 237.628 335.628C237.562 335.233 237.487 334.828 237.383 334.428C237.336 334.228 237.289 334.043 237.233 333.845C237.196 333.679 237.148 333.516 237.092 333.356C237.026 333.121 236.951 332.876 236.866 332.641C236.81 332.462 236.753 332.284 236.687 332.114C236.41 331.341 236.089 330.584 235.728 329.847C235.652 329.687 235.577 329.537 235.502 329.386C235.239 328.878 234.966 328.38 234.665 327.881L234.439 327.514C234.298 327.288 234.147 327.063 234.006 326.846C233.44 325.996 232.821 325.182 232.153 324.41C231.814 324.024 231.476 323.657 231.128 323.318C230.968 323.149 230.798 322.989 230.638 322.838C230.591 322.791 230.538 322.744 230.488 322.697C230.356 322.575 230.215 322.453 230.088 322.34C228.674 321.057 227.008 320.083 225.196 319.48C222.412 318.643 219.919 319.292 218.489 321.569C218.442 321.634 218.395 321.71 218.357 321.776C218.084 322.249 217.866 322.753 217.708 323.276C217.264 324.849 217.149 326.497 217.369 328.116V328.116Z" fill="url(#paint0_linear_12_2)"/>
<path id="Vector_81" d="M230.953 324.776L231.053 327.862C232.21 327.768 233.353 327.655 234.43 327.514C234.289 327.288 234.138 327.063 233.997 326.846C233.431 325.996 232.812 325.182 232.144 324.41C231.805 324.024 231.467 323.657 231.119 323.318C230.959 323.149 230.789 322.989 230.629 322.838C230.582 322.791 230.529 322.744 230.479 322.697C230.347 322.575 230.206 322.453 230.079 322.34C228.665 321.057 226.999 320.083 225.187 319.48C222.403 318.643 219.91 319.292 218.48 321.569C220.634 320.74 222.994 320.604 225.229 321.179C227.465 321.753 229.466 323.011 230.953 324.776V324.776Z" fill="#393843"/>
<path id="Vector_82" d="M218.027 328.069C218.027 328.069 220.69 331.597 223.427 332.528C226.164 333.459 231.461 339.866 231.461 339.866L231.061 327.866C224.801 328.333 218.027 328.069 218.027 328.069Z" fill="#393843"/>
<path id="Vector_83" d="M223.512 326C224.069 329.887 225.749 333.526 228.347 336.47C229.633 338.011 231.221 339.272 233.013 340.177V340.186C234.117 340.753 235.347 341.031 236.588 340.995C236.673 340.995 236.759 340.986 236.842 340.967C237.101 340.949 237.356 340.902 237.604 340.826C237.786 340.001 237.874 339.159 237.868 338.314C237.868 337.909 237.849 337.495 237.811 337.081C237.802 336.865 237.774 336.658 237.745 336.451C237.727 336.31 237.708 336.169 237.689 336.028C237.67 335.887 237.651 335.764 237.623 335.628C237.557 335.233 237.482 334.828 237.378 334.428C237.331 334.228 237.284 334.043 237.228 333.845C237.191 333.679 237.143 333.516 237.087 333.356C237.021 333.121 236.946 332.876 236.861 332.641C236.805 332.462 236.748 332.284 236.682 332.114C236.405 331.341 236.084 330.584 235.723 329.847C235.647 329.687 235.572 329.537 235.497 329.386C235.234 328.878 234.961 328.38 234.66 327.881C234.453 327.533 234.227 327.181 234.001 326.846C233.435 325.996 232.816 325.182 232.148 324.41C231.809 324.024 231.471 323.657 231.123 323.318C230.963 323.149 230.793 322.989 230.633 322.838C230.586 322.791 230.533 322.744 230.483 322.697C230.351 322.575 230.21 322.453 230.083 322.34C228.669 321.057 227.003 320.083 225.191 319.48C224.863 319.8 224.582 320.164 224.354 320.562C224.12 320.969 223.934 321.401 223.799 321.851C223.593 322.562 223.474 323.294 223.442 324.033C223.414 324.689 223.438 325.347 223.512 326V326Z" fill="url(#paint1_linear_12_2)"/>
<path id="Vector_84" d="M231.418 331.764L231.16 334.175V334.184L231.418 331.764L233.296 330.675L234.66 327.881C234.453 327.533 234.227 327.181 234.001 326.846C233.435 325.996 232.816 325.182 232.148 324.41C231.809 324.024 231.471 323.657 231.123 323.318C230.963 323.149 230.793 322.989 230.633 322.838C230.586 322.791 230.533 322.744 230.483 322.697C230.116 322.914 229.815 323.097 229.796 323.121L232.146 325.821L231.418 331.764Z" fill="url(#paint2_linear_12_2)"/>
<path id="Vector_85" d="M231.418 331.764L231.16 334.175V334.184L233.013 340.177L233.841 342.877C234.123 343.469 233.286 344.814 233.672 344.739C234.732 344.338 235.738 343.804 236.663 343.149C236.71 343.074 236.757 343.008 236.795 342.933C236.957 342.66 237.096 342.374 237.209 342.077C237.186 341.926 237.139 341.78 237.068 341.644L236.842 340.967L233.456 331L233.296 330.68L231.418 331.764Z" fill="url(#paint3_linear_12_2)"/>
<path id="Vector_86" d="M220.093 322.807C220.191 322.766 220.299 322.751 220.404 322.764C220.51 322.776 220.611 322.814 220.698 322.876L229.689 326.682L229.941 326.827L229.95 331.654L227.95 330.505L220.498 327.584C220.252 327.424 220.046 327.209 219.895 326.957C219.744 326.706 219.652 326.423 219.626 326.13C219.575 325.075 217.95 324.845 218.151 323.93C218.763 323.497 219.413 323.121 220.093 322.807V322.807Z" fill="url(#paint4_linear_12_2)"/>
<path id="Vector_87" d="M229.555 335.585L233.461 327.555C233.543 327.313 233.559 327.054 233.51 326.803C233.46 326.553 233.346 326.32 233.178 326.127C232.808 325.624 232.416 325.136 232.003 324.661C231.59 324.186 231.17 323.745 230.745 323.338C230.336 322.945 229.889 322.907 229.697 323.238L225.791 331.268L229.555 335.585Z" fill="#DFDFE3"/>
<path id="Vector_88" d="M228.069 332.741L228.059 327.913L227.808 327.769L218.816 323.962C218.41 323.729 218.056 323.847 217.968 324.251C217.764 325.225 217.69 326.222 217.747 327.216C217.773 327.509 217.865 327.792 218.016 328.044C218.167 328.295 218.374 328.51 218.62 328.67L226.071 331.592L228.069 332.741Z" fill="#DFDFE3"/>
<path id="Vector_89" d="M235.16 343.96C235.421 343.76 235.431 343.243 235.186 342.729L231.575 332.084L231.422 331.764L228.073 332.741L229.273 335.263L231.959 343.963C232.24 344.551 232.759 344.946 233.146 344.87C233.88 344.731 234.57 344.419 235.16 343.96Z" fill="#DFDFE3"/>
<path id="Vector_90" d="M233.151 343.68C233.093 343.616 233.045 343.543 233.008 343.464L230.253 334.62L226.818 330.682L219.199 327.664C219.045 327.538 218.941 327.36 218.907 327.164C218.876 326.571 218.893 325.976 218.957 325.386L228.234 329.357L230.296 324.53C230.579 324.818 230.856 325.118 231.128 325.43C231.514 325.873 231.889 326.341 232.244 326.822C232.308 326.908 232.355 327.006 232.383 327.109L230.261 332.04L234.149 343.259C233.84 343.45 233.503 343.592 233.151 343.68Z" fill="#4B4A4B"/>
<path id="Vector_91" d="M120.326 270.608C120.326 279.579 113.988 283.191 106.171 278.678C98.354 274.165 92.017 263.234 92.017 254.264C92.017 245.294 98.354 241.681 106.171 246.194C113.988 250.707 120.326 261.638 120.326 270.608Z" fill="#2D2C37"/>
<path id="Vector_92" d="M120.326 270.608C120.326 279.578 113.988 283.191 106.171 278.678C98.354 274.165 92.017 263.234 92.017 254.264C92.017 245.294 98.354 241.681 106.171 246.194C113.988 250.707 120.326 261.638 120.326 270.608Z" fill="#393843"/>
<path id="Vector_93" d="M119.443 270.445C119.443 279.074 113.343 282.55 105.827 278.208C98.311 273.866 92.211 263.351 92.211 254.723C92.211 246.095 98.311 242.618 105.827 246.959C113.343 251.3 119.443 261.816 119.443 270.445Z" fill="#2D2C37"/>
<path id="Vector_94" d="M117.52 269.376C117.52 276.725 112.329 279.685 105.925 275.988C99.521 272.291 94.33 263.336 94.33 255.988C94.33 248.64 99.521 245.68 105.93 249.377C112.339 253.074 117.52 262.028 117.52 269.376Z" fill="#504F58"/>
<path id="Vector_95" d="M117.158 268.611C117.158 275.576 112.238 278.381 106.168 274.877C100.098 271.373 95.175 262.886 95.175 255.922C95.175 248.958 100.095 246.152 106.164 249.656C112.233 253.16 117.158 261.647 117.158 268.611Z" fill="#BABABE"/>
<path id="Vector_96" d="M95.967 258.025C96.6174 262.549 98.5724 266.786 101.593 270.217C104.754 273.839 108.329 275.664 111.198 275.485C112.435 275.429 113.606 274.912 114.481 274.036C114.786 273.748 115.049 273.419 115.262 273.058C115.309 272.983 115.356 272.917 115.394 272.842C115.556 272.569 115.695 272.283 115.808 271.986C115.973 271.58 116.107 271.161 116.208 270.734C116.389 269.909 116.478 269.067 116.471 268.223C116.471 267.818 116.452 267.404 116.415 266.99C116.405 266.774 116.377 266.567 116.349 266.36L116.292 265.937C116.274 265.805 116.255 265.673 116.227 265.537C116.161 265.142 116.085 264.737 115.982 264.337C115.935 264.137 115.888 263.952 115.832 263.754C115.795 263.588 115.747 263.425 115.69 263.265C115.625 263.03 115.549 262.785 115.465 262.55C115.408 262.371 115.352 262.192 115.286 262.023C115.008 261.25 114.687 260.493 114.326 259.756C114.251 259.596 114.176 259.445 114.101 259.295C113.837 258.787 113.564 258.288 113.263 257.795L113.038 257.428C112.896 257.202 112.746 256.976 112.605 256.76C112.038 255.91 111.419 255.096 110.752 254.323C110.413 253.938 110.074 253.571 109.726 253.232C109.566 253.063 109.397 252.903 109.237 252.752C109.19 252.705 109.137 252.658 109.086 252.611C108.955 252.489 108.814 252.367 108.686 252.254C107.272 250.971 105.606 249.997 103.794 249.394C101.009 248.557 98.516 249.206 97.086 251.482C97.0388 251.549 96.9951 251.618 96.955 251.689C96.6822 252.163 96.4645 252.666 96.306 253.189C95.8627 254.761 95.7474 256.407 95.967 258.025V258.025Z" fill="url(#paint5_linear_12_2)"/>
<path id="Vector_97" d="M109.552 254.685L109.652 257.771C110.809 257.677 111.957 257.564 113.03 257.423C112.888 257.197 112.738 256.971 112.597 256.755C112.03 255.905 111.411 255.091 110.744 254.318C110.405 253.933 110.066 253.566 109.718 253.227C109.558 253.058 109.389 252.898 109.229 252.747C109.182 252.7 109.129 252.653 109.078 252.606C108.947 252.484 108.806 252.362 108.678 252.249C107.264 250.966 105.598 249.992 103.786 249.389C101.001 248.552 98.508 249.201 97.078 251.477C99.2326 250.648 101.592 250.512 103.828 251.087C106.064 251.662 108.065 252.92 109.552 254.685V254.685Z" fill="#393843"/>
<path id="Vector_98" d="M96.626 257.978C96.626 257.978 99.288 261.506 102.026 262.437C104.764 263.368 110.06 269.775 110.06 269.775L109.655 257.775C103.399 258.241 96.626 257.978 96.626 257.978Z" fill="#393843"/>
<path id="Vector_99" d="M102.11 255.908C102.667 259.795 104.348 263.434 106.946 266.379C108.233 267.919 109.82 269.18 111.612 270.085V270.095C112.716 270.662 113.946 270.94 115.187 270.904C115.272 270.904 115.358 270.894 115.441 270.876C115.7 270.858 115.955 270.81 116.203 270.734C116.384 269.909 116.473 269.067 116.466 268.223C116.466 267.818 116.447 267.404 116.41 266.99C116.4 266.774 116.372 266.567 116.344 266.36L116.287 265.937C116.269 265.805 116.25 265.673 116.222 265.537C116.156 265.142 116.08 264.737 115.977 264.337C115.93 264.137 115.883 263.952 115.827 263.754C115.79 263.588 115.742 263.425 115.685 263.265C115.62 263.03 115.544 262.785 115.46 262.55C115.403 262.371 115.347 262.192 115.281 262.023C115.003 261.25 114.682 260.493 114.321 259.756C114.246 259.596 114.171 259.445 114.096 259.295C113.832 258.787 113.559 258.288 113.258 257.795C113.051 257.447 112.826 257.095 112.6 256.76C112.033 255.91 111.414 255.096 110.747 254.323C110.408 253.938 110.069 253.571 109.721 253.232C109.561 253.063 109.392 252.903 109.232 252.752C109.185 252.705 109.132 252.658 109.081 252.611C108.95 252.489 108.809 252.367 108.681 252.254C107.267 250.971 105.601 249.997 103.789 249.394C103.461 249.714 103.179 250.078 102.952 250.476C102.718 250.883 102.532 251.315 102.397 251.765C102.191 252.475 102.071 253.208 102.039 253.947C102.012 254.602 102.036 255.257 102.11 255.908V255.908Z" fill="url(#paint6_linear_12_2)"/>
<path id="Vector_100" d="M110.017 261.673L109.759 264.083V264.093L110.017 261.673L111.894 260.584L113.258 257.79C113.051 257.442 112.826 257.09 112.6 256.755C112.033 255.905 111.414 255.091 110.747 254.318C110.408 253.933 110.069 253.566 109.721 253.227C109.561 253.058 109.392 252.898 109.232 252.747C109.185 252.7 109.132 252.653 109.081 252.606C108.714 252.823 108.413 253.011 108.395 253.03L110.745 255.73L110.017 261.673Z" fill="url(#paint7_linear_12_2)"/>
<path id="Vector_101" d="M110.017 261.673L109.759 264.083V264.093L111.612 270.085L112.44 272.785C112.722 273.378 111.885 274.723 112.271 274.648C113.331 274.247 114.336 273.712 115.262 273.058C115.309 272.983 115.356 272.917 115.394 272.842C115.556 272.569 115.695 272.283 115.808 271.986C115.786 271.835 115.738 271.688 115.667 271.553L115.441 270.876L112.054 260.904L111.894 260.584L110.017 261.673Z" fill="url(#paint8_linear_12_2)"/>
<path id="Vector_102" d="M98.692 252.716C98.7897 252.676 98.8958 252.661 99.0007 252.673C99.1056 252.685 99.2058 252.723 99.292 252.784L108.284 256.591L108.535 256.736L108.545 261.563L106.545 260.414L99.093 257.493C98.8467 257.333 98.6402 257.118 98.4892 256.866C98.3381 256.614 98.2464 256.331 98.221 256.038C98.17 254.984 96.545 254.754 96.746 253.838C97.3591 253.406 98.0105 253.03 98.692 252.716V252.716Z" fill="url(#paint9_linear_12_2)"/>
<path id="Vector_103" d="M108.153 265.494L112.06 257.464C112.142 257.222 112.159 256.963 112.109 256.712C112.059 256.462 111.945 256.229 111.777 256.036C111.406 255.533 111.015 255.045 110.602 254.57C110.189 254.095 109.77 253.654 109.344 253.247C108.935 252.854 108.487 252.816 108.296 253.147L104.389 261.177L108.153 265.494Z" fill="#DFDFE3"/>
<path id="Vector_104" d="M106.667 262.649L106.658 257.822L106.406 257.678L97.415 253.871C97.008 253.637 96.655 253.756 96.566 254.16C96.3628 255.134 96.2888 256.131 96.346 257.125C96.3719 257.418 96.4638 257.7 96.6149 257.952C96.7659 258.204 96.9721 258.418 97.218 258.579L104.675 261.5L106.667 262.649Z" fill="#DFDFE3"/>
<path id="Vector_105" d="M113.758 273.869C114.02 273.664 114.03 273.151 113.785 272.638L110.175 261.993L110.022 261.673L106.672 262.649L107.878 265.172L110.564 273.872C110.845 274.46 111.364 274.854 111.751 274.778C112.483 274.639 113.171 274.327 113.758 273.869V273.869Z" fill="#DFDFE3"/>
<path id="Vector_106" d="M111.749 273.589C111.691 273.524 111.643 273.452 111.606 273.373L108.852 264.529L105.417 260.591L97.797 257.572C97.6429 257.446 97.5392 257.268 97.505 257.072C97.4747 256.479 97.4914 255.884 97.555 255.294L106.833 259.265L108.895 254.438C109.177 254.726 109.456 255.026 109.726 255.338C110.113 255.781 110.487 256.249 110.842 256.73C110.906 256.816 110.954 256.913 110.981 257.017L108.859 261.947C108.859 261.947 112.745 273.159 112.748 273.166C112.439 273.358 112.102 273.501 111.749 273.589V273.589Z" fill="#4B4A4B"/>
<path id="Vector_107" d="M266.423 346.208L286.452 343.68L322.484 323.015L329.639 305.278L330.044 301.336L315.627 311.602L301.284 321.112L282.779 330.396L267.839 330.71L266.423 346.208Z" fill="#F00000"/>
<path id="Vector_108" d="M279.075 337.124L291.648 325.724C291.648 325.724 300 321.835 306.674 318.083C310.606 315.884 314.401 313.448 318.037 310.789L325.846 309.642C325.846 309.642 318.279 317.421 315.685 320.376C313.472 322.897 290.166 335.227 286.585 335.422C284.044 335.808 281.534 336.377 279.075 337.124Z" fill="#FF553D"/>
<path id="Vector_109" d="M264.194 330.082H271.776H282.023L287.586 325.172L288.831 322.176L277.204 324.526L262.994 322.726L244.133 313.356L254.782 323.843L264.194 330.082Z" fill="#F00000"/>
<path id="Vector_110" d="M283.839 324.163C281.557 326.091 279.011 327.682 276.278 328.889C276.049 328.979 275.826 329.059 275.609 329.133C275.13 329.302 274.636 329.421 274.133 329.489C274.01 329.505 273.888 329.516 273.771 329.521C270.425 329.687 267.072 329.613 263.737 329.298C261.554 329.054 253.898 325.969 251.673 323.776C250.198 322.301 248.9 320.66 247.803 318.886L249.263 317.006H249.422C249.47 317.011 249.533 317.011 249.608 317.017C249.656 317.017 249.708 317.017 249.762 317.027C249.816 317.037 249.878 317.033 249.948 317.038C249.979 317.044 250.011 317.047 250.043 317.048C250.082 317.055 250.121 317.059 250.16 317.059C250.906 317.128 251.644 317.274 252.36 317.495C252.86 317.659 253.825 318.036 255.078 318.503C255.216 318.557 255.354 318.61 255.503 318.663C258.429 319.786 261.435 320.686 264.497 321.355C268.623 322.178 274.522 322.438 278.87 322.985C279.019 323.006 279.17 323.022 279.316 323.043C279.922 323.128 280.495 323.213 281.026 323.314C281.408 323.378 281.759 323.452 282.093 323.531L283.839 324.163Z" fill="#C3C2CE"/>
<path id="Vector_111" d="M264.501 321.355C268.627 322.178 274.526 322.438 278.874 322.985C277.368 324.18 275.674 325.118 273.862 325.761C270.634 326.691 263.376 325.969 263.376 325.969C263.376 325.969 255.013 323.017 254.97 322.263C255.071 321.053 255.251 319.85 255.507 318.663C258.433 319.786 261.439 320.686 264.501 321.355V321.355Z" fill="white"/>
<path id="Vector_112" d="M283.836 324.165C281.555 326.091 279.01 327.681 276.279 328.887C276.048 328.98 275.826 329.06 275.609 329.131C275.13 329.297 274.636 329.418 274.134 329.491C274.01 329.505 273.89 329.518 273.774 329.522C270.428 329.688 267.074 329.614 263.739 329.3C261.553 329.056 253.899 325.968 251.674 323.774C250.199 322.299 248.899 320.659 247.8 318.887L249.262 317C249.262 317 249.319 317 249.421 317C249.47 317 249.533 317 249.608 317.009C249.657 317.009 249.708 317.009 249.763 317.018L249.946 317.031C249.979 317.037 250.013 317.04 250.046 317.04C250.086 317.04 250.126 317.04 250.166 317.049L248.798 318.644C248.798 318.644 251.165 322.308 252.987 323.481C254.809 324.654 263.746 327.666 263.746 327.666C263.746 327.666 271.231 328.159 273.728 327.666C275.767 327.266 279.672 324.366 281.04 323.299C281.422 323.366 281.777 323.441 282.11 323.521L283.836 324.165Z" fill="#FF553D"/>
<path id="Vector_113" d="M330.653 295.014C330.573 295.014 330.207 297.409 329.474 300.031C329.296 300.496 329.021 300.918 328.667 301.269C328.088 301.943 322.386 305.649 319.312 305.522L319.232 305.516L320.719 303.371L320.814 303.238C320.814 303.228 320.83 303.222 320.835 303.212C323.517 300.132 326.283 295.476 327.802 293.331C328.214 292.606 328.471 291.803 328.556 290.973C328.676 290.277 328.718 289.571 328.683 288.866C328.485 288.169 328.186 287.505 327.796 286.895C327.09 285.664 326.219 284.373 326.129 284.246C327.445 285.826 328.538 287.578 329.378 289.455C330.094 291.229 330.524 293.105 330.653 295.014Z" fill="#C3C2CE"/>
<path id="Vector_114" d="M278.815 335.75L291.389 324.35C291.389 324.35 299.721 320.088 306.395 316.336C310.327 314.137 314.122 311.702 317.758 309.042L325.587 308.268C325.587 308.268 318.019 316.047 315.425 319.002C313.213 321.522 289.906 333.853 286.325 334.047C283.784 334.434 281.274 335.003 278.815 335.75V335.75Z" fill="#292929"/>
<path id="Vector_115" d="M320.753 308.749C318.307 311.288 314.688 315.076 313.053 316.941C310.84 319.462 287.534 331.793 283.953 331.987C283.57 332.013 283.189 332.06 282.811 332.128L278.811 335.75C281.272 335.004 283.783 334.435 286.325 334.05C289.902 333.856 313.209 321.525 315.425 319.005C318.019 316.05 325.587 308.271 325.587 308.271L320.753 308.749Z" fill="#CC0000"/>
<path id="Vector_116" d="M325.587 300.477C325.587 300.483 325.587 300.488 325.577 300.493C324.409 301.993 322.702 302.977 320.819 303.238C320.825 303.228 320.83 303.222 320.835 303.212C320.894 303.112 320.963 303.012 321.042 302.899C322.471 300.69 326.076 294.488 327.064 292.949C327.304 292.573 327.513 292.179 327.69 291.77C327.976 291.112 328.164 290.416 328.248 289.704C328.371 288.875 328.264 288.029 327.939 287.257C327.885 287.139 327.837 287.018 327.796 286.895C327.52 286.041 329.267 288.695 329.506 291.664C329.675 293.745 328.03 297.764 325.587 300.477Z" fill="#C3C2CE"/>
<path id="Vector_117" d="M328.775 293.564C328.775 295.614 326.609 298.683 325.589 300.477C325.589 300.483 325.589 300.488 325.579 300.493C325.1 301.363 324.397 302.089 323.543 302.595C322.688 303.101 321.714 303.369 320.721 303.371L320.816 303.238C320.816 303.228 320.832 303.222 320.837 303.212C320.896 303.112 320.965 303.012 321.044 302.899C322.473 300.69 326.078 294.488 327.066 292.949C327.306 292.573 327.515 292.179 327.692 291.77C327.978 291.112 328.166 290.416 328.25 289.704C328.383 290.119 328.485 290.543 328.558 290.973C328.703 291.829 328.775 292.696 328.775 293.564Z" fill="white"/>
<path id="Vector_118" d="M254.175 318.3C254.175 318.3 252.5 317.67 252.193 317.605C251.35 317.428 250.703 317.305 250.703 317.305L249.575 318.679C250.244 319.806 251.017 320.868 251.882 321.852C252.204 321.89 252.53 321.85 252.832 321.735C253.135 321.62 253.405 321.433 253.62 321.191L254.175 318.3Z" fill="#FFCE49"/>
<path id="Vector_119" d="M231.16 308.287C223.504 304.487 222.502 307.322 216.95 308.742C232.337 313.042 238.096 321.073 240.844 326.442C242.632 329.995 244.228 333.641 245.626 337.365C246.464 339.012 248.619 321.769 231.16 308.287Z" fill="#FF553D"/>
<path id="Vector_120" d="M231.16 308.287C221.813 302.322 219.06 304.009 216.208 305.255C210.515 307.741 207.8 316.117 208.454 321.188C209.108 326.325 210.384 328.582 210.384 328.582C210.384 328.582 209.337 320.435 210.711 317.655C212.085 314.875 212.38 312.812 216.044 310.195C219.708 307.578 227.228 311.275 227.228 311.275L235.363 315.397L231.16 308.287Z" fill="#FF553D"/>
<path id="Vector_121" d="M246.267 343.319L247.475 350.663L246.927 350.39L245.34 349.474L244.131 342.086C244.131 331.593 236.719 318.806 227.573 313.526C218.427 308.246 211.012 312.472 211.012 322.965L212.221 330.353L210.088 329.122L208.879 321.733C208.879 309.888 217.248 305.114 227.573 311.075C237.898 317.036 246.267 331.474 246.267 343.319Z" fill="#CC0000"/>
<path id="Vector_122" d="M331.625 308.563C327.446 313.598 324.448 315.734 319.125 320.009C313.802 324.284 293.91 336.118 287.367 337.863C280.824 339.608 274.396 341.957 265.177 339.863C255.958 337.769 251.077 336.202 251.077 336.202L252.605 339.864C252.605 339.864 253.346 349.071 258.45 349.725C263.554 350.379 272.664 349.002 282.558 346.478C292.452 343.954 314.767 329.56 314.767 329.56L323.273 322.922L328.819 314.388L331.063 310.795L331.625 308.563Z" fill="#CC0000"/>
<path id="Vector_123" d="M329.426 314.677L328.916 316.462L324.142 323.152L315.256 331.109L294.38 343.162L277.364 350.162L264.052 352.732L261.445 353.049L247.475 350.664L246.926 350.391L245.811 349.747C245.928 348.237 247.195 346.965 247.475 346.209C247.975 344.832 252.6 339.867 252.6 339.867C252.6 339.867 255.856 346.382 260.4 347.567C260.56 347.609 260.722 347.643 260.887 347.672C262.59 347.901 264.314 347.935 266.025 347.772C268.99 347.526 271.937 347.094 274.848 346.479L292.994 339.169L316.637 325.386L323.793 319.122L326.161 316.696L328.14 314.673L328.805 314.202L328.828 314.675L329.426 314.677Z" fill="#FF553D"/>
<path id="Vector_124" d="M274.849 346.481C275.996 344.975 277.432 343.713 279.072 342.769C280.713 341.825 282.525 341.217 284.403 340.981C288.263 340.261 298.225 335.196 304.357 331.681C310.489 328.166 317.627 323.949 318.821 322.481C320.015 321.013 323.205 318.67 323.794 319.131C322.966 321.183 317.913 325.508 317.913 325.508C312.51 329.363 306.865 332.866 301.013 335.996C289.621 342.3 283.814 343.8 274.849 346.481Z" fill="#292929"/>
<path id="Vector_125" d="M82.645 217.373L73.601 213.197L71.957 212.437L70.997 205.729L71.897 202.571L78.419 195.965L77.719 197.036C77.719 197.036 72.475 202.051 72.475 202.509C72.6941 203.076 72.9837 203.614 73.337 204.109C74.115 205.344 75.137 206.833 75.137 206.833L79.966 213.025L82.645 217.373Z" fill="#C3C2CE"/>
<path id="Vector_126" d="M69.803 212.384L73.654 208.127V204.614L72.473 202.509L77.723 197.036L78.421 195.965L71.899 202.571L70.998 205.729L69.803 212.384Z" fill="#E9D7A7"/>
<path id="Vector_127" d="M82.363 216.939L82.234 217.659L79.849 217.859L73.319 212.759L71.984 210.659L72.39 206.468C72.39 206.468 72.91 204.256 73.052 203.674C73.83 204.909 74.852 206.397 74.852 206.397L79.681 212.589L82.363 216.939Z" fill="#FF5030"/>
<path id="Vector_128" d="M74.284 212.171L80.084 216.655L82.084 216.488L79.684 212.594L74.855 206.402C74.855 206.402 74.276 205.558 73.655 204.614C73.499 205.275 73.355 205.881 73.355 205.881L72.948 210.072L74.284 212.171Z" fill="#FF4123"/>
<path id="Vector_129" d="M305.081 309.413L303.944 311.691L300.925 311.923L302.062 309.645L305.081 309.413Z" fill="#C3C2CE"/>
<path id="Vector_130" d="M228.375 220.926C234.164 217.15 242.131 209.826 242.131 209.826L242.637 208.408L242.576 208.344L176.094 246.72L212.694 289.86L222.746 286.924C222.746 286.924 217.646 284.966 215.391 284.138C213.136 283.31 208.962 276.566 201.04 267.192C193.118 257.818 180.684 246.392 180.684 246.392C180.684 246.392 189.046 242.803 194.23 240.31C199.414 237.817 222.581 224.7 228.375 220.926Z" fill="#FF553D"/>
<path id="Vector_131" d="M203.106 281.822C201.869 281.438 199.306 281.938 196.79 282.484C194.274 283.03 192.38 282.984 192.181 285.434C191.982 287.884 192.775 288.476 193.82 288.634C195.854 288.815 197.903 288.568 199.836 287.911C202.823 287.043 203.244 286.553 203.71 285.729C204.176 284.905 204.34 282.206 203.106 281.822Z" fill="#FF3717"/>
<path id="Vector_132" d="M133.198 66.047L236.7 6.29001L236.722 14.115C236.969 101.4 187.875 153.64 185.29 156.39C182.699 156.628 133.468 161.159 133.221 73.871L133.198 66.047ZM223.417 73.389C227.737 57.5671 230.185 41.2927 230.711 24.9L139.275 77.695C139.896 93.429 142.423 106.83 146.82 117.614C150.834 127.47 156.41 135.182 163.396 140.543C169.694 145.429 177.315 148.309 185.271 148.809C193.668 138.444 200.96 127.231 207.028 115.352C213.955 101.981 219.449 87.9149 223.42 73.389H223.417Z" fill="#D9E0EA"/>
<path id="Vector_133" d="M230.711 24.9C230.185 41.2917 227.737 57.565 223.417 73.386C219.446 87.9119 213.952 101.978 207.025 115.349C200.957 127.228 193.665 138.441 185.268 148.806C177.312 148.306 169.691 145.426 163.393 140.54C156.407 135.179 150.831 127.467 146.817 117.611C142.417 106.827 139.893 93.426 139.272 77.692L230.711 24.9Z" fill="#F7941D"/>
<path id="Vector_134" d="M133.199 66.047L122.374 59.756L225.876 0L236.7 6.29L133.199 66.047Z" fill="#F6F7F8"/>
<path id="Vector_135" d="M133.221 73.871L133.198 66.047L122.375 59.756L122.397 67.581C122.536 116.453 138.03 136.541 152.097 144.715L162.921 151.005C148.853 142.832 133.359 122.743 133.221 73.871Z" fill="#C1C7CE"/>
<path id="Vector_136" d="M206.662 60.698L199.939 56.792L211.243 58.607L217.966 62.513L206.662 60.698Z" fill="#F6F7F8"/>
<path id="Vector_137" d="M188.59 103.669L181.867 99.762L199.939 56.792L206.662 60.698L188.59 103.669Z" fill="#CBD5E2"/>
<path id="Vector_138" d="M168.764 114.124L162.041 110.217L171.491 93.849L178.214 97.756L168.764 114.124Z" fill="#CBD5E2"/>
<path id="Vector_139" d="M188.59 103.669L181.867 99.762L171.491 93.849L178.214 97.756L188.59 103.669Z" fill="#A9A9A9"/>
<path id="Vector_140" d="M206.662 60.698L217.966 62.513L190.944 126.764L168.764 114.124L178.214 97.756L188.59 103.669L206.662 60.698Z" fill="#F6F6F6"/>
<path id="Vector_141" d="M170.544 113.642L178.694 99.526L189.22 105.525L207.465 62.145L216.125 63.535L190.314 124.907L170.544 113.642Z" fill="#F7941D"/>
<path id="Vector_142" d="M207.807 233C209.313 236.091 213.428 235.225 214.597 234.488C215.766 233.751 225.512 228.251 226.985 227.125C228.458 225.999 226.613 222.415 226.613 222.415C226.613 222.415 215.767 228.8 207.807 233Z" fill="#131313"/>
<path id="Vector_143" d="M221.875 230.892L218.113 233.064C215.968 234.306 213.894 235.666 211.901 237.139V237.139C211.564 237.412 211.307 237.771 211.157 238.178C211.006 238.585 210.969 239.025 211.048 239.451L211.515 241.64C211.528 241.816 211.582 241.987 211.675 242.137C211.767 242.287 211.894 242.413 212.046 242.504C212.197 242.595 212.368 242.648 212.544 242.659C212.72 242.67 212.897 242.639 213.058 242.567C215.254 241.629 217.391 240.559 219.458 239.362L223.22 237.19C225.365 235.949 227.439 234.588 229.432 233.115V233.115C229.769 232.842 230.026 232.484 230.177 232.077C230.327 231.67 230.364 231.23 230.285 230.804L229.818 228.615C229.806 228.439 229.751 228.268 229.659 228.118C229.566 227.967 229.439 227.841 229.288 227.75C229.136 227.659 228.965 227.606 228.789 227.595C228.613 227.584 228.436 227.615 228.275 227.687C226.079 228.626 223.942 229.696 221.875 230.892Z" fill="#63747D"/>
<path id="Vector_144" d="M222.698 233.683C222.656 232.609 222.424 229.642 222.424 229.642L218.682 229.72C218.682 229.72 219.098 233.927 219.145 234.08C219.356 234.764 220.269 235.521 220.661 235.48C221.58 235.385 222.744 234.843 222.698 233.683Z" fill="#63747D"/>
<path id="Vector_145" d="M222.11 228.738C222.245 228.92 222.34 229.128 222.387 229.35C222.435 229.571 222.434 229.801 222.384 230.022C222.335 230.243 222.238 230.451 222.101 230.631C221.964 230.812 221.79 230.96 221.59 231.067C221.167 231.307 220.672 231.387 220.196 231.291C219.719 231.195 219.293 230.931 218.996 230.546C218.86 230.364 218.766 230.156 218.718 229.934C218.671 229.712 218.672 229.483 218.721 229.262C218.771 229.04 218.867 228.832 219.004 228.652C219.141 228.471 219.316 228.323 219.516 228.216C219.939 227.976 220.434 227.897 220.91 227.993C221.387 228.088 221.813 228.353 222.11 228.738V228.738Z" fill="#63747D"/>
</g>
</g>
</g>
<defs>
<linearGradient id="paint0_linear_12_2" x1="234.829" y1="344.935" x2="220.31" y2="319.786" gradientUnits="userSpaceOnUse">
<stop offset="0.273" stop-color="#ECEEF7"/>
<stop offset="0.77" stop-color="#9C9AA8"/>
</linearGradient>
<linearGradient id="paint1_linear_12_2" x1="227.362" y1="336.955" x2="234.525" y2="324.549" gradientUnits="userSpaceOnUse">
<stop offset="0.262" stop-color="#393843"/>
<stop offset="0.781" stop-color="#23222E"/>
</linearGradient>
<linearGradient id="paint2_linear_12_2" x1="228.464" y1="327.765" x2="234.22" y2="329.415" gradientUnits="userSpaceOnUse">
<stop stop-color="#ADAEB8"/>
<stop offset="0.076" stop-color="#BABCC5"/>
<stop offset="0.199" stop-color="#C9CBD4"/>
<stop offset="0.342" stop-color="#D2D4DC"/>
<stop offset="0.549" stop-color="#D5D7DF"/>
<stop offset="0.662" stop-color="#C0C1CA"/>
<stop offset="1" stop-color="#868490"/>
</linearGradient>
<linearGradient id="paint3_linear_12_2" x1="-14964.4" y1="5121.18" x2="-14996.2" y2="5115.66" gradientUnits="userSpaceOnUse">
<stop stop-color="#ADAEB8"/>
<stop offset="0.076" stop-color="#BABCC5"/>
<stop offset="0.199" stop-color="#C9CBD4"/>
<stop offset="0.342" stop-color="#D2D4DC"/>
<stop offset="0.549" stop-color="#D5D7DF"/>
<stop offset="0.662" stop-color="#C0C1CA"/>
<stop offset="1" stop-color="#868490"/>
</linearGradient>
<linearGradient id="paint4_linear_12_2" x1="-29371.9" y1="3268.39" x2="-29392.1" y2="3221.94" gradientUnits="userSpaceOnUse">
<stop stop-color="#ADAEB8"/>
<stop offset="0.076" stop-color="#BABCC5"/>
<stop offset="0.199" stop-color="#C9CBD4"/>
<stop offset="0.342" stop-color="#D2D4DC"/>
<stop offset="0.549" stop-color="#D5D7DF"/>
<stop offset="0.662" stop-color="#C0C1CA"/>
<stop offset="1" stop-color="#868490"/>
</linearGradient>
<linearGradient id="paint5_linear_12_2" x1="-49258.2" y1="7572.53" x2="-48833.9" y2="6999.86" gradientUnits="userSpaceOnUse">
<stop offset="0.273" stop-color="#ECEEF7"/>
<stop offset="0.77" stop-color="#9C9AA8"/>
</linearGradient>
<linearGradient id="paint6_linear_12_2" x1="-34359.8" y1="6033.48" x2="-34535.7" y2="5828.97" gradientUnits="userSpaceOnUse">
<stop offset="0.262" stop-color="#393843"/>
<stop offset="0.781" stop-color="#23222E"/>
</linearGradient>
<linearGradient id="paint7_linear_12_2" x1="-11504.5" y1="3235.48" x2="-11534.3" y2="3239.1" gradientUnits="userSpaceOnUse">
<stop stop-color="#ADAEB8"/>
<stop offset="0.076" stop-color="#BABCC5"/>
<stop offset="0.199" stop-color="#C9CBD4"/>
<stop offset="0.342" stop-color="#D2D4DC"/>
<stop offset="0.549" stop-color="#D5D7DF"/>
<stop offset="0.662" stop-color="#C0C1CA"/>
<stop offset="1" stop-color="#868490"/>
</linearGradient>
<linearGradient id="paint8_linear_12_2" x1="-14351.4" y1="4066.81" x2="-14383.2" y2="4061.28" gradientUnits="userSpaceOnUse">
<stop stop-color="#ADAEB8"/>
<stop offset="0.076" stop-color="#BABCC5"/>
<stop offset="0.199" stop-color="#C9CBD4"/>
<stop offset="0.342" stop-color="#D2D4DC"/>
<stop offset="0.549" stop-color="#D5D7DF"/>
<stop offset="0.662" stop-color="#C0C1CA"/>
<stop offset="1" stop-color="#868490"/>
</linearGradient>
<linearGradient id="paint9_linear_12_2" x1="-28058.8" y1="2574.69" x2="-28079" y2="2528.25" gradientUnits="userSpaceOnUse">
<stop stop-color="#ADAEB8"/>
<stop offset="0.076" stop-color="#BABCC5"/>
<stop offset="0.199" stop-color="#C9CBD4"/>
<stop offset="0.342" stop-color="#D2D4DC"/>
<stop offset="0.549" stop-color="#D5D7DF"/>
<stop offset="0.662" stop-color="#C0C1CA"/>
<stop offset="1" stop-color="#868490"/>
</linearGradient>
<clipPath id="clip0_12_2">
<rect width="390.277" height="396.732" fill="white"/>
</clipPath>
</defs>
</svg>
